<?xml version="1.0"?>
<svg xmlns="http://www.w3.org/2000/svg" xmlns:xlink="http://www.w3.org/1999/xlink" xmlns:svgjs="http://svgjs.com/svgjs" version="1.1" width="512" height="512" x="0" y="0" viewBox="0 0 512 512" style="enable-background:new 0 0 512 512" xml:space="preserve" class=""><g>
<circle xmlns="http://www.w3.org/2000/svg" style="" cx="256" cy="256" r="256" fill="#fefefe" data-original="#f0f0f0" class=""/>
<g xmlns="http://www.w3.org/2000/svg">
	<polygon style="" points="510.497,283.826 510.491,283.818 510.49,283.826  " fill="#0052b4" data-original="#0052b4"/>
	<path style="" d="M510.49,283.826c0-0.002,0.001-0.004,0.001-0.008L229.746,1.331   c-12.665,1.291-25.058,3.505-37.109,6.574C81.898,36.1,0,256,0,256s358.398,239.835,399.285,212.164   c8.181-5.536,16.025-11.533,23.493-17.953L256.395,283.826H510.49z" fill="#0052b4" data-original="#0052b4"/>
</g>
<path xmlns="http://www.w3.org/2000/svg" style="" d="M445.217,256L196.245,7.029C83.688,33.946,0,135.192,0,256c0,141.384,114.616,256,256,256  c53.629,0,103.397-16.502,144.529-44.689L189.217,256H445.217z" fill="#d80027" data-original="#d80027" class=""/>
<g xmlns="http://www.w3.org/2000/svg">
	<polygon style="" points="243.472,377.993 212.207,363.287 228.856,333.008 194.906,339.503 190.604,305.205    166.957,330.43 143.31,305.205 139.007,339.503 105.058,333.007 121.707,363.287 90.441,377.993 121.707,392.698 105.058,422.978    139.009,416.484 143.309,450.78 166.957,425.555 190.604,450.78 194.906,416.484 228.855,422.979 212.206,392.7  " fill="#fefefe" data-original="#f0f0f0" class=""/>
	<polygon style="" points="222.609,141.983 199.869,131.288 211.978,109.265 187.285,113.989 184.156,89.043    166.957,107.39 149.758,89.043 146.628,113.989 121.935,109.265 134.045,131.288 111.304,141.983 166.957,153.115  " fill="#fefefe" data-original="#f0f0f0" class=""/>
	<path style="" d="M233.739,141.983c0,36.883-29.9,66.783-66.783,66.783s-66.783-29.9-66.783-66.783" fill="#fefefe" data-original="#f0f0f0" class=""/>
</g>
<g xmlns="http://www.w3.org/2000/svg">
</g>
<g xmlns="http://www.w3.org/2000/svg">
</g>
<g xmlns="http://www.w3.org/2000/svg">
</g>
<g xmlns="http://www.w3.org/2000/svg">
</g>
<g xmlns="http://www.w3.org/2000/svg">
</g>
<g xmlns="http://www.w3.org/2000/svg">
</g>
<g xmlns="http://www.w3.org/2000/svg">
</g>
<g xmlns="http://www.w3.org/2000/svg">
</g>
<g xmlns="http://www.w3.org/2000/svg">
</g>
<g xmlns="http://www.w3.org/2000/svg">
</g>
<g xmlns="http://www.w3.org/2000/svg">
</g>
<g xmlns="http://www.w3.org/2000/svg">
</g>
<g xmlns="http://www.w3.org/2000/svg">
</g>
<g xmlns="http://www.w3.org/2000/svg">
</g>
<g xmlns="http://www.w3.org/2000/svg">
</g>
</g></svg>
